HIERARCHY
ROOT Hips
{
  OFFSET 0 0 0
  CHANNELS 6 Xposition Yposition Zposition Zrotation Xrotation Yrotation
  JOINT Spine
  {
    OFFSET 0 10.1816 0.131521
    CHANNELS 3 Zrotation Xrotation Yrotation
    JOINT Spine1
    {
      OFFSET 0 10.0835 -1.0008
      CHANNELS 3 Zrotation Xrotation Yrotation
      JOINT Spine2
      {
        OFFSET 0 9.10001 -1.37342
        CHANNELS 3 Zrotation Xrotation Yrotation
        JOINT Neck
        {
          OFFSET 0 16.6717 -2.51617
          CHANNELS 3 Zrotation Xrotation Yrotation
          JOINT Head
          {
            OFFSET 0 9.61788 1.68501
            CHANNELS 3 Zrotation Xrotation Yrotation
            End Site
            {
              OFFSET 0 0 0
            }
          }
        }
        JOINT LeftShoulder
        {
          OFFSET 4.57045 10.946 -2.62799
          CHANNELS 3 Zrotation Xrotation Yrotation
          JOINT LeftArm
          {
            OFFSET 10.5924 -0.524583 -2.23212
            CHANNELS 3 Zrotation Xrotation Yrotation
            JOINT LeftForeArm
            {
              OFFSET 27.8415 -8.94286e-05 3.74589e-05
              CHANNELS 3 Zrotation Xrotation Yrotation
              JOINT LeftHand
              {
                OFFSET 28.3288 -1.74407e-05 3.78045e-05
                CHANNELS 3 Zrotation Xrotation Yrotation
                End Site
                {
                  OFFSET 0 0 0
                }
              }
            }
          }
        }
        JOINT RightShoulder
        {
          OFFSET -4.56997 10.9462 -2.62802
          CHANNELS 3 Zrotation Xrotation Yrotation
          JOINT RightArm
          {
            OFFSET -10.5928 -0.524798 -2.2321
            CHANNELS 3 Zrotation Xrotation Yrotation
            JOINT RightForeArm
            {
              OFFSET -27.8415 -3.30792e-05 1.16763e-05
              CHANNELS 3 Zrotation Xrotation Yrotation
              JOINT RightHand
              {
                OFFSET -28.3288 0 5.5816e-05
                CHANNELS 3 Zrotation Xrotation Yrotation
                End Site
                {
                  OFFSET 0 0 0
                }
              }
            }
          }
        }
      }
    }
  }
  JOINT LeftUpLeg
  {
    OFFSET 8.20778 -6.75171 -1.59956
    CHANNELS 3 Zrotation Xrotation Yrotation
    JOINT LeftLeg
    {
      OFFSET 0 -44.3705 0.284643
      CHANNELS 3 Zrotation Xrotation Yrotation
      JOINT LeftFoot
      {
        OFFSET 0 -44.4279 -2.98219
        CHANNELS 3 Zrotation Xrotation Yrotation
        JOINT LeftToeBase
        {
          OFFSET 0 -8.72867 10.7106
          CHANNELS 3 Zrotation Xrotation Yrotation
          End Site
          {
            OFFSET 0 0 0
          }
        }
      }
    }
  }
  JOINT RightUpLeg
  {
    OFFSET -8.2078 -6.75166 -1.59956
    CHANNELS 3 Zrotation Xrotation Yrotation
    JOINT RightLeg
    {
      OFFSET 0 -44.3705 0.286156
      CHANNELS 3 Zrotation Xrotation Yrotation
      JOINT RightFoot
      {
        OFFSET 0 -44.4277 -2.98379
        CHANNELS 3 Zrotation Xrotation Yrotation
        JOINT RightToeBase
        {
          OFFSET 0 -8.72867 10.7106
          CHANNELS 3 Zrotation Xrotation Yrotation
          End Site
          {
            OFFSET 0 0 0
          }
        }
      }
    }
  }
}
MOTION
Frames:	13
Frame Time:	0.0333333
14.3905 119.897 -25.8915 -3.80921 -1.60572 -177.918 -0.996921 2.92135 -0.977758 2.79154 5.77886 -1.5143 2.79154 5.77887 -1.51429 -2.75666 -10.8908 -0.611913 1.90117 19.4295 0.109693 -0.285683 2.07959 -0.133559 -17.9622 1.37843 14.8631 3.52493 -32.6151 -61.6845 -3.3969 -6.12482 -6.03315 0.961175 -0.808956 -0.516536 30.3724 11.9941 -23.7581 -10.7599 -12.7961 34.1188 3.19507 -5.06602 3.07816 3.3981 -24.628 11.3031 -1.57226 6.2282 4.10566 5.54926 29.3308 -8.40913 -0.148901 -14.7044 0.211803 -7.77868 -23.2962 1.86473 -0.337774 -0.282637 4.8643 8.4429 7.38317 3.24016 8.26221 -8.35721 -0.451813 
13.5108 111.899 -37.8571 -3.6372 -1.51242 179.541 -0.971588 2.24491 -0.485988 2.80928 4.48054 -0.458471 2.80928 4.48055 -0.458464 -2.74199 -10.4389 -0.305837 1.70835 19.3466 0.591863 1.56026 0.00399987 -0.473129 -24.518 -6.93861 28.4926 -2.5438 -25.7995 -82.7175 -2.92334 -5.71688 -5.95335 -0.919414 -0.897472 0.0903651 44.2233 10.4336 -28.8164 -13.0195 -15.1214 40.7168 2.76544 -7.25502 2.75912 2.81528 -21.6747 12.166 -1.63016 6.18599 3.57976 5.71628 24.8119 -8.51352 0.0962969 -14.5759 0.227917 -6.93553 -19.6608 4.59479 -0.339007 -0.0345108 5.82854 8.36131 8.48631 4.80456 8.96666 -9.06401 -0.396842 
12.5273 104.583 -48.3171 -3.59432 -1.1473 177.008 -0.897067 1.76389 0.257604 2.92998 3.60022 1.07705 2.92998 3.60023 1.07705 -2.84387 -9.49905 0.38357 2.14031 17.6613 -0.761075 3.08804 -0.952567 -1.60651 -34.0617 -15.6005 38.6236 18.7738 -21.3426 -90.814 -0.996319 -5.95822 -2.42736 -2.44424 -1.42262 1.50514 59.0346 3.81623 -30.5795 -15.3912 -15.7788 43.8097 2.5274 -8.1638 2.19612 2.78875 -24.4754 11.1882 -1.42679 19.7224 3.80227 3.23303 8.53446 -3.52501 0.282441 -14.467 0.239803 -7.26658 -17.2669 4.54466 -1.41871 7.22052 6.21385 5.38072 -1.00414 -8.14013 9.61949 -9.72757 -0.348797 
11.5946 99.1108 -56.5386 -3.83862 -0.702433 175.862 -0.869522 2.02469 0.94647 2.95779 4.19579 2.42505 2.95779 4.19581 2.42505 -2.76795 -9.54131 0.0766789 1.59974 14.5941 -1.10339 4.18561 0.29117 -2.90128 -58.0939 -18.1969 32.6052 24.7898 -30.0464 -94.9218 -1.14182 -4.10675 -1.04513 -3.22067 -1.72966 2.58192 73.7692 -1.93645 -23.4402 -18.1686 -15.1839 43.1653 2.57097 -10.428 1.77571 2.41338 -29.4682 9.622 -0.941139 37.1965 4.0693 2.25371 -0.233825 -1.18959 0.400576 -14.3672 0.246864 -7.05182 -26.4486 5.38449 -2.0113 34.9454 11.2208 3.10869 -13.2795 -14.8617 11.9203 -12.7696 0.198506 
10.6558 96.4357 -63.7197 -5.38725 -0.0375167 175.588 -1.15897 2.54569 1.48852 2.34436 5.28575 3.46724 2.34436 5.28576 3.46724 -2.69414 -9.70538 -0.340115 1.61167 12.7817 -1.78038 4.7681 0.813974 -3.78373 -76.8753 -12.7967 18.7361 23.64 -30.0066 -91.4333 -1.50882 -6.31889 -1.09464 -3.79312 -1.54614 3.38311 86.6576 6.6033 -13.4858 -20.1932 -14.7729 42.9329 2.30244 -9.34752 1.21317 1.78942 -31.1978 10.9235 -0.983624 48.8275 3.52206 3.5031 -4.495 -4.91454 0.441965 -14.3208 0.249415 -8.09153 -28.4738 3.43538 -2.5463 48.5454 10.5604 -10.0969 -17.9487 -16.6738 10.816 -10.8819 -0.160185 
9.65337 94.8319 -70.8002 -5.67 -0.77124 175.334 -1.31184 2.55967 1.59901 2.03224 5.32016 3.69409 2.03225 5.32018 3.6941 -1.71584 -9.8031 -0.0581955 1.59173 13.7031 -1.37553 4.57016 0.441358 -4.35704 -81.311 -0.809964 9.98319 18.7612 -28.1614 -81.8647 -1.93857 -13.6371 -1.93845 -4.14981 -1.29314 3.97497 90.588 30.9609 -6.15384 -22.6345 -16.3051 46.5826 1.47928 1.2709 0.26345 4.24725 -31.8279 15.5072 -1.17823 56.357 2.87637 5.89099 -5.75018 -12.4858 0.31157 -18.9373 0.560299 -9.65812 -31.8894 1.7571 -2.78773 58.51 11.3554 -8.51856 -13.6612 -11.4829 11.2112 -11.2629 -0.0877818 
8.79185 93.3792 -77.5367 -5.27943 -3.08768 177.758 -1.45706 2.18419 0.86569 1.78271 4.49418 2.26971 1.78271 4.49419 2.26972 -0.568332 -9.7854 0.413942 1.66928 14.3348 -0.67353 4.21216 -0.171414 -4.88481 -78.0873 12.8749 4.28362 19.9023 -28.3941 -69.8362 -2.02912 -12.9522 -1.7377 -4.74417 -0.903186 4.47097 85.5418 49.0339 2.02066 -25.4368 -21.7674 56.6018 1.08916 15.4397 -0.448077 6.34966 -33.4911 17.5481 -1.18409 61.8706 2.23173 8.70529 -4.72394 -19.9034 0.438945 -27.1455 1.25535 -12.5646 -38.4998 -2.50867 -2.68241 67.9103 11.784 -6.16749 -6.33512 -2.2532 11.3813 -11.4265 -0.0550899 
7.80952 92.4643 -84.2209 -3.82618 -5.23831 -177.299 -1.5615 2.00377 -0.17171 1.61472 4.03184 0.216493 1.61472 4.03185 0.216499 0.210432 -10.3211 0.0560856 2.4315 13.2775 -1.39843 4.00265 -0.272547 -5.2302 -72.8542 21.354 -2.15721 21.9953 -27.2449 -64.2184 -1.63301 -5.09212 -1.14595 -5.37685 -0.583895 4.75049 79.7298 52.357 9.1024 -25.7551 -27.1471 68.5044 1.54232 13.1422 -0.321001 6.79292 -33.0666 15.9874 -0.867886 63.9008 1.89824 10.2039 -5.06371 -23.3536 0.359914 -31.6464 1.56796 -17.3239 -43.5831 -10.9101 -2.21915 74.566 11.7186 -6.74765 -2.41233 1.05965 11.4175 -11.4616 -0.0480497 
6.91221 92.0726 -90.9716 -2.2285 -7.73321 -173.206 -1.64889 1.85471 -0.83673 1.4345 3.67054 -1.09866 1.4345 3.67055 -1.09866 0.179863 -11.2007 -0.856268 3.79818 11.6832 -3.03707 4.01164 -0.225877 -5.53648 -68.2258 25.2621 -10.2556 23.0147 -27.4313 -63.4756 -1.43373 -5.44065 -0.954726 -5.80058 -0.351463 4.97977 77.56 47.442 11.2383 -25.3742 -29.4759 76.5844 2.01255 3.13208 0.116285 6.53043 -30.6317 13.6516 -0.18606 63.2032 1.92706 8.77169 -9.64377 -21.7539 0.0141546 -31.7419 1.39243 -21.7418 -48.0051 -19.1663 -1.96337 77.875 11.2708 -8.98573 -1.81797 -7.53718 11.3521 -11.3992 -0.0605707 
6.01407 91.8585 -97.7523 -1.20511 -10.756 -170.576 -1.80398 1.70464 -1.24066 1.05818 3.33574 -1.89592 1.05818 3.33575 -1.89592 -0.143711 -12.114 -1.46443 4.95021 9.70277 -4.0638 4.16601 -0.0938435 -5.92047 -65.3003 25.0227 -18.8329 23.268 -28.6608 -64.7921 -1.41061 -6.67777 -0.926938 -5.96154 -0.352972 5.2718 78.3451 39.8982 9.99585 -24.3735 -29.9599 78.1011 2.15432 5.70395 0.221151 5.04789 -27.731 10.7133 0.295411 60.7391 1.99079 7.47168 -13.3327 -16.1766 -0.0859631 -31.4284 1.34552 -25.7257 -53.8212 -25.8082 -1.31309 77.7978 10.8814 -12.8027 -1.96123 -15.6495 11.1641 -11.2183 -0.0957071 
5.06788 91.7645 -104.637 0.16915 -13.9469 -168.191 -1.89114 1.67085 -1.67681 0.77515 3.23385 -2.77627 0.775146 3.23386 -2.77625 -0.628088 -13.2992 -1.72643 6.02208 7.28618 -4.43178 4.3731 0.240212 -6.18254 -64.4735 22.0531 -26.0841 22.114 -30.8359 -69.9799 -1.48758 -5.93663 -1.152 -5.97591 -0.491867 5.44523 79.7451 33.9417 7.03271 -23.1984 -29.7814 75.5994 2.1321 4.75215 0.582485 3.84514 -24.985 6.99987 0.37255 56.9989 2.32984 6.54012 -13.9907 -10.6909 -1.23607 -31.929 0.758504 -29.0504 -59.7759 -30.8944 -0.642049 73.1709 10.4315 -14.5842 -2.64234 -16.5894 10.8656 -10.9302 -0.149054 
4.18005 91.8448 -111.853 2.18599 -17.4229 -165.638 -1.81843 1.70807 -2.05302 0.772489 3.27938 -3.55209 0.772485 3.27938 -3.55209 -1.64151 -14.9875 -2.12707 7.33325 4.6644 -5.00416 4.64398 0.833602 -6.06843 -65.0525 18.3765 -31.874 21.0375 -32.7027 -80.2984 -1.48155 -8.03263 -1.38663 -6.09656 -0.573908 5.20349 82.2036 30.0387 0.19098 -22.6204 -29.9084 75.933 2.16636 1.78348 0.798803 4.2366 -22.4266 3.52578 0.284823 51.6818 2.91981 5.89683 -12.1821 -8.43214 -3.29827 -33.0798 -0.276308 -32.246 -64.8679 -35.1371 -0.388767 64.5261 10.057 -13.8679 -2.9907 -14.1081 10.4694 -10.5457 -0.215351 
3.22866 92.1751 -119.655 4.35798 -21.1601 -162.653 -1.61116 1.67891 -2.34455 0.999535 3.19775 -4.16106 0.999531 3.19776 -4.16105 -2.81813 -16.3841 -2.4591 8.08899 1.63077 -5.56249 4.93022 1.30806 -5.77886 -63.4665 17.5809 -36.7285 22.8952 -36.945 -90.8199 -1.24132 -7.9207 -1.0981 -6.40027 -0.365402 4.65031 86.3295 26.6176 -11.5417 -22.7871 -30.555 82.9252 2.06431 2.35891 0.538804 5.68576 -19.4393 0.90025 -0.0294245 43.8624 3.37051 6.39078 -6.88331 -8.89536 -6.9761 -35.2525 -2.08711 -36.8542 -67.9801 -40.1861 -0.457598 53.5862 9.60254 -12.0111 -2.19535 -12.198 9.98792 -10.076 -0.2889 
